<?xml version="1.0" standalone="no"?>
<!DOCTYPE svg PUBLIC "-//W3C//DTD SVG 20010904//EN"
 "http://www.w3.org/TR/2001/REC-SVG-20010904/DTD/svg10.dtd">
<svg version="1.0" xmlns="http://www.w3.org/2000/svg"
 width="571.000000pt" height="571.000000pt" viewBox="0 0 571.000000 571.000000"
 preserveAspectRatio="xMidYMid meet">

<g transform="translate(0.000000,571.000000) scale(0.100000,-0.100000)"
fill="#000000" stroke="none">
<path d="M2929 5340 c-14 -8 -17 -28 -16 -117 1 -160 -30 -242 -199 -530 -152
-259 -204 -379 -229 -521 -19 -108 -19 -156 1 -273 30 -177 103 -360 217 -546
l56 -92 -17 -90 c-9 -50 -20 -91 -23 -91 -3 0 -11 12 -18 28 -22 47 -119 185
-166 235 l-45 48 0 90 c0 329 -172 579 -465 676 -73 24 -94 27 -240 27 -141 0
-186 -4 -375 -37 -171 -29 -357 -54 -422 -57 -14 0 -8 -31 10 -58 11 -15 56
-92 102 -172 224 -393 401 -594 622 -705 247 -124 472 -94 675 89 l51 46 37
-42 c47 -55 135 -234 178 -363 l33 -100 -13 -130 c-28 -295 -27 -767 3 -1006
l6 -45 -88 -18 c-175 -34 -326 -90 -507 -188 -187 -101 -401 -257 -554 -402
l-67 -63 33 -17 c26 -14 64 -18 184 -20 149 -2 154 -3 246 -39 109 -43 139
-45 282 -16 130 27 252 22 384 -16 113 -31 169 -32 270 0 118 37 228 35 371
-7 188 -54 299 -44 450 42 88 51 150 61 284 48 127 -13 148 -9 205 37 l30 24
-35 37 c-19 20 -80 72 -135 117 -293 236 -613 396 -915 457 -67 13 -110 27
-118 38 -19 25 -67 184 -90 297 -27 132 -51 328 -54 440 -2 86 0 93 36 165 54
107 121 205 192 279 l61 64 99 -66 c54 -36 121 -75 149 -87 122 -52 251 -63
377 -31 150 39 232 96 473 331 94 91 212 201 263 244 50 43 92 82 92 85 0 13
-133 140 -184 176 -78 55 -215 122 -312 151 -81 25 -104 28 -249 28 -156 1
-163 0 -255 -32 -117 -41 -179 -75 -298 -165 -104 -78 -174 -158 -227 -258
-40 -76 -87 -215 -104 -309 -11 -59 -18 -71 -72 -128 l-59 -63 0 163 c0 202
19 333 60 425 29 64 36 71 115 122 214 137 352 315 408 524 18 68 21 109 21
242 -1 139 -4 172 -26 256 -51 190 -172 435 -333 679 -107 160 -144 203 -166
190z m138 -287 c131 -199 264 -504 294 -677 17 -99 6 -330 -19 -428 -41 -152
-112 -259 -234 -349 -45 -33 -89 -64 -99 -70 -17 -9 -17 -7 -4 31 22 63 63
275 76 395 18 173 -10 574 -54 765 l-13 55 -7 -120 c-4 -66 -7 -194 -7 -284 0
-90 -1 -166 -4 -168 -7 -8 -41 14 -97 62 -58 49 -69 54 -69 28 0 -10 36 -53
81 -96 l81 -78 -7 -52 c-8 -67 -44 -244 -56 -274 -5 -13 -12 -23 -17 -23 -10
0 -110 104 -160 165 -23 28 -32 34 -32 22 0 -29 80 -158 132 -213 l48 -51 -39
-119 c-62 -186 -58 -180 -80 -160 -27 24 -125 218 -155 307 -60 178 -73 350
-36 495 25 95 99 252 209 439 131 221 201 386 201 468 0 9 2 17 4 17 3 0 31
-39 63 -87z m-1132 -968 c257 -54 455 -273 472 -525 l6 -74 -69 63 c-137 126
-263 211 -367 246 -126 43 -333 60 -373 31 -10 -8 -17 -17 -14 -19 3 -3 57
-12 120 -22 126 -18 198 -38 280 -80 65 -32 172 -110 218 -157 l32 -34 -55
-23 c-57 -24 -199 -121 -177 -121 7 0 54 14 104 31 50 16 113 33 140 36 47 6
51 4 89 -33 21 -21 39 -41 39 -44 0 -13 -88 -94 -129 -118 -121 -71 -275 -83
-417 -33 -239 83 -495 359 -689 742 l-34 67 97 12 c53 6 162 22 242 35 80 13
161 26 180 28 86 9 241 5 305 -8z m2073 -480 c164 -27 322 -101 431 -203 l56
-52 -35 -28 c-70 -55 -198 -170 -310 -277 -63 -61 -135 -127 -160 -147 -230
-185 -482 -191 -694 -18 -30 25 -55 48 -56 52 0 12 145 121 229 172 96 58 260
131 406 181 61 20 117 44 125 51 12 12 4 14 -55 14 -209 -1 -593 -163 -808
-343 -26 -22 -50 -37 -53 -35 -8 9 36 129 79 213 54 105 196 249 312 316 183
106 336 136 533 104z m-1203 -1493 c17 -169 41 -292 74 -385 26 -75 4 -60 -33
22 -58 130 -95 356 -81 498 10 102 18 74 40 -135z m-227 -668 c32 -22 27 -66
-8 -76 -110 -31 -171 -54 -275 -103 -217 -102 -336 -145 -404 -145 l-36 1 27
24 c38 33 269 175 353 217 68 34 189 82 230 91 44 10 92 6 113 -9z m784 -25
c83 -28 159 -67 315 -161 193 -118 211 -146 71 -111 -46 12 -158 55 -250 97
-92 42 -189 81 -215 87 -67 16 -78 22 -81 52 -4 30 29 57 71 57 15 0 55 -9 89
-21z"/>
<path d="M1723 3584 c-26 -30 -52 -62 -56 -70 -11 -19 7 -18 23 2 8 8 34 27
59 41 63 36 81 52 74 69 -12 31 -51 14 -100 -42z"/>
</g>
</svg>
